PathFileType	4	(X/Y/Z)
DataRate	CameraRate	NumFrames	NumMarkers	Units	OrigDataRate	OrigDataStartFrame	OrigNumFrames	
	120.0	120.0	4	39	mm	120.0	58	231
Frame#	Time	midhip	hip_r	hip_l	knee_r	knee_l	ankle_r	ankle_l	midasis	asis_r	asis_l	psis_r	psis_l	epicondLat_r	epicondLat_l	epicondMed_r	epicondMed_l	malleolusLat_r	malleolusLat_l	malleolusMedv_r	malleolusMedv_l	heel_r	heel_l	sternalnotch	xyphoidprocess	neck	subclavicle_r	subclavicle_l	toe_r	toe_l	thighwand_r	thighwand_l	upperleg1_r	upperleg1_l	upperleg2_r	upperleg2_l	shankwand_r	shankwand_l	lowerleg1_r	lowerleg1_l
	X1	Y1	Z1	X2	Y2	Z2	X3	Y3	Z3	X4	Y4	Z4	X5	Y5	Z5	X6	Y6	Z6	X7	Y7	Z7	X8	Y8	Z8	X9	Y9	Z9	X10	Y10	Z10	X11	Y11	Z11	X12	Y12	Z12	X13	Y13	Z13	X14	Y14	Z14	X15	Y15	Z15	X16	Y16	Z16	X17	Y17	Z17	X18	Y18	Z18	X19	Y19	Z19	X20	Y20	Z20	X21	Y21	Z21	X22	Y22	Z22	X23	Y23	Z23	X24	Y24	Z24	X25	Y25	Z25	X26	Y26	Z26	X27	Y27	Z27	X28	Y28	Z28	X29	Y29	Z29	X30	Y30	Z30	X31	Y31	Z31	X32	Y32	Z32	X33	Y33	Z33	X34	Y34	Z34	X35	Y35	Z35	X36	Y36	Z36	X37	Y37	Z37	X38	Y38	Z38	X39	Y39	Z39

	58	0.48333	1450.230	835.005	-260.013	1462.784	836.557	-202.656	1437.675	833.453	-317.371	1443.066	459.684	-180.220	1437.484	464.949	-345.645	1420.931	63.503	-174.002	1415.846	66.003	-355.886	1523.250	902.247	-271.713	1536.435	905.429	-171.140	1510.065	899.066	-372.287	1379.314	959.531	-232.439	1373.234	959.030	-286.822	1456.855	462.128	-127.033	1442.042	469.102	-399.795	1426.765	452.222	-232.342	1427.932	453.046	-294.986	1410.612	64.662	-136.929	1408.868	67.352	-393.724	1442.543	76.335	-201.936	1438.967	76.223	-333.636	1373.599	42.972	-168.569	1370.561	47.965	-343.927	1506.784	1298.478	-289.344	1573.269	1136.434	-284.254	1424.873	1350.069	-275.299	1527.432	1292.288	-230.428	1516.394	1285.099	-339.532	1533.806	41.325	-127.277	1532.065	39.052	-407.541	1589.679	620.412	-200.429	1572.940	624.943	-330.757	1521.328	676.531	-152.194	1501.935	673.524	-384.029	1507.460	591.625	-146.911	1498.282	585.366	-381.464	1411.406	187.390	-67.216	1361.416	185.291	-444.544	1415.824	193.259	-108.859	1383.098	190.026	-407.362
	59	0.49167	1450.798	834.998	-260.502	1463.055	836.468	-203.078	1438.542	833.528	-317.926	1443.318	459.652	-180.232	1437.939	464.978	-345.803	1420.986	63.445	-173.979	1415.805	65.985	-355.900	1523.669	902.491	-271.688	1536.319	905.498	-171.133	1511.019	899.484	-372.242	1379.196	959.452	-232.497	1373.143	958.933	-286.933	1457.114	462.154	-127.049	1442.620	469.065	-399.948	1427.209	452.183	-232.447	1428.391	452.802	-295.499	1410.669	64.612	-136.906	1408.911	67.326	-393.754	1442.545	76.264	-201.939	1438.996	76.137	-333.651	1373.607	42.958	-168.555	1370.645	47.935	-343.995	1506.555	1298.455	-289.344	1572.955	1136.375	-284.325	1424.717	1350.052	-275.374	1527.266	1292.255	-230.462	1516.101	1285.071	-339.531	1533.795	41.297	-127.283	1532.077	39.026	-407.541	1589.845	620.645	-200.386	1573.113	625.018	-330.635	1521.391	676.594	-152.170	1502.183	673.532	-384.076	1507.653	591.689	-146.926	1498.720	585.375	-381.615	1411.554	187.401	-67.198	1361.738	185.291	-444.713	1416.009	193.200	-108.831	1383.427	189.973	-407.492
	60	0.50000	1451.532	834.993	-261.090	1463.427	836.353	-203.588	1439.637	833.633	-318.593	1443.537	459.618	-180.226	1438.379	465.019	-345.926	1421.016	63.383	-173.958	1415.794	65.963	-355.916	1524.220	902.784	-271.643	1536.223	905.563	-171.119	1512.218	900.004	-372.168	1379.077	959.369	-232.524	1373.048	958.829	-287.018	1457.366	462.185	-127.055	1443.141	469.018	-400.070	1427.513	452.222	-232.497	1428.948	452.558	-295.953	1410.720	64.555	-136.878	1408.956	67.298	-393.780	1442.545	76.219	-201.943	1439.032	76.064	-333.651	1373.614	42.941	-168.528	1370.658	47.926	-344.002	1506.300	1298.460	-289.379	1572.655	1136.362	-284.328	1424.546	1350.036	-275.446	1527.008	1292.265	-230.528	1515.843	1285.063	-339.534	1533.779	41.271	-127.285	1532.085	39.006	-407.536	1589.994	620.895	-200.414	1573.243	625.086	-330.514	1521.500	676.688	-152.146	1502.392	673.533	-384.139	1507.850	591.767	-146.939	1499.179	585.419	-381.747	1411.717	187.408	-67.161	1362.016	185.290	-444.846	1416.166	193.165	-108.783	1383.670	189.915	-407.573
	61	0.50833	1452.288	834.995	-261.664	1463.825	836.242	-204.086	1440.751	833.749	-319.242	1443.722	459.600	-180.202	1438.793	465.060	-346.021	1421.026	63.330	-173.936	1415.810	65.939	-355.936	1524.787	903.082	-271.586	1536.149	905.628	-171.096	1513.425	900.537	-372.077	1378.971	959.285	-232.530	1372.950	958.729	-287.072	1457.600	462.230	-127.047	1443.597	468.967	-400.168	1427.694	452.300	-232.480	1429.520	452.405	-296.123	1410.761	64.504	-136.848	1409.002	67.272	-393.805	1442.557	76.192	-201.931	1439.055	76.003	-333.648	1373.617	42.926	-168.491	1370.637	47.919	-343.961	1506.002	1298.441	-289.400	1572.277	1136.313	-284.245	1424.343	1350.005	-275.561	1526.641	1292.246	-230.522	1515.597	1285.031	-339.544	1533.760	41.253	-127.283	1532.088	38.997	-407.530	1590.127	621.160	-200.506	1573.407	625.178	-330.481	1521.621	676.822	-152.155	1502.590	673.526	-384.199	1508.019	591.851	-146.955	1499.585	585.448	-381.806	1411.885	187.421	-67.106	1362.248	185.295	-444.940	1416.281	193.175	-108.740	1383.878	189.859	-407.636
